<svg xmlns="http://www.w3.org/2000/svg" xmlns:xlink="http://www.w3.org/1999/xlink" viewBox="0 0 725.78 694.18"><defs><style>.cls-1,.cls-11{fill:none;}.cls-1{stroke:#968972;}.cls-1,.cls-11,.cls-2,.cls-6{stroke-miterlimit:10;}.cls-1,.cls-2{stroke-width:0.5px;}.cls-2{fill:#94978c;stroke:#565656;}.cls-3{fill:url(#Безымянный_градиент_33);}.cls-4{fill:url(#Безымянный_градиент_13);}.cls-5{fill:url(#Безымянный_градиент_57);}.cls-6{stroke:#736357;fill:url(#Безымянный_градиент_69);}.cls-10,.cls-7,.cls-8,.cls-9{fill:#736357;}.cls-7{opacity:0.86;}.cls-8{opacity:0.55;}.cls-9{opacity:0.67;}.cls-11{stroke:#333;stroke-linecap:round;}.cls-12{fill:url(#Безымянный_градиент_46);}.cls-13{fill:url(#Безымянный_градиент_46-2);}.cls-14{fill:url(#Безымянный_градиент_46-3);}.cls-15{fill:url(#Безымянный_градиент_44);}</style><linearGradient id="Безымянный_градиент_33" x1="485.73" y1="585.66" x2="241.25" y2="585.66" gradientUnits="userSpaceOnUse"><stop offset="0" stop-color="#c69c6d"/><stop offset="0.37" stop-color="#be9466"/><stop offset="0.94" stop-color="#a97f54"/><stop offset="1" stop-color="#a67c52"/></linearGradient><linearGradient id="Безымянный_градиент_13" x1="485.73" y1="243.65" x2="241.25" y2="243.65" gradientUnits="userSpaceOnUse"><stop offset="0" stop-color="#666"/><stop offset="0.28" stop-color="#848484"/><stop offset="0.52" stop-color="#999"/><stop offset="1" stop-color="#666"/></linearGradient><radialGradient id="Безымянный_градиент_57" cx="362.85" cy="478.79" r="86.55" gradientTransform="matrix(-0.93, -0.54, 0.25, -0.93, 582.99, 1124.2)" gradientUnits="userSpaceOnUse"><stop offset="0.22" stop-color="#00a99d"/><stop offset="0.29" stop-color="#1aa291"/><stop offset="0.47" stop-color="#4b957b"/><stop offset="0.63" stop-color="#738a69"/><stop offset="0.78" stop-color="#8f825c"/><stop offset="0.9" stop-color="#a07e55"/><stop offset="1" stop-color="#a67c52"/></radialGradient><linearGradient id="Безымянный_градиент_69" x1="452.03" y1="482.57" x2="456.11" y2="456.8" gradientUnits="userSpaceOnUse"><stop offset="0.04" stop-color="#736357"/><stop offset="0.18" stop-color="#71645a"/><stop offset="1" stop-color="#666"/></linearGradient><linearGradient id="Безымянный_градиент_46" x1="318.36" y1="535.87" x2="299.11" y2="527.7" gradientUnits="userSpaceOnUse"><stop offset="0" stop-color="#29abe2"/><stop offset="0.09" stop-color="#1daace"/><stop offset="0.21" stop-color="#10aab8"/><stop offset="0.35" stop-color="#07a9a9"/><stop offset="0.51" stop-color="#02a9a0"/><stop offset="0.74" stop-color="#00a99d"/></linearGradient><linearGradient id="Безымянный_градиент_46-2" x1="357.22" y1="587.6" x2="348.73" y2="583.99" gradientTransform="translate(-257.03 256.31) rotate(-35.21)" xlink:href="#Безымянный_градиент_46"/><linearGradient id="Безымянный_градиент_46-3" x1="371.49" y1="661.82" x2="353.29" y2="654.1" gradientTransform="translate(-316.41 552.32) rotate(-62.68)" xlink:href="#Безымянный_градиент_46"/><linearGradient id="Безымянный_градиент_44" x1="362.89" y1="693.71" x2="362.89" y2="564.41" gradientUnits="userSpaceOnUse"><stop offset="0" stop-color="#29abe2"/><stop offset="0.16" stop-color="#26abdd"/><stop offset="0.36" stop-color="#1daace"/><stop offset="0.57" stop-color="#0faab6"/><stop offset="0.74" stop-color="#00a99d"/></linearGradient></defs><title>k_1</title><g id="Слой_2" data-name="Слой 2"><g id="k_1"><line class="cls-1" x1="457.5" y1="316" x2="725.53" y2="106.76"/><line class="cls-1" x1="457.5" y1="266.17" x2="725.43" y2="57"/><line class="cls-1" x1="457.5" y1="212.36" x2="725.55" y2="3.1"/><line class="cls-1" x1="454.47" y1="435.61" x2="725.53" y2="224"/><line class="cls-1" x1="459.51" y1="369.81" x2="725.53" y2="162.13"/><line class="cls-1" x1="491.77" y1="474.44" x2="725.53" y2="291.94"/><line class="cls-1" x1="548.56" y1="476.79" x2="725.53" y2="338.63"/><line class="cls-1" x1="615.87" y1="476.9" x2="725.53" y2="391.3"/><line class="cls-1" x1="672.22" y1="480.74" x2="725.53" y2="439.12"/><line class="cls-1" x1="660.77" y1="0.25" x2="458.88" y2="155.88"/><line class="cls-1" x1="600.32" y1="0.25" x2="493.65" y2="82.48"/><line class="cls-1" x1="535.85" y1="0.25" x2="494.56" y2="32.09"/><line class="cls-1" x1="491.91" y1="474.34" x2="714.08" y2="693.9"/><line class="cls-1" x1="548.71" y1="476.77" x2="714.12" y2="640.24"/><line class="cls-1" x1="615.85" y1="476.7" x2="713.41" y2="573.11"/><line class="cls-1" x1="672.25" y1="480.46" x2="725.53" y2="533.11"/><line class="cls-1" x1="485.35" y1="515.6" x2="663.76" y2="691.9"/><line class="cls-1" x1="485.35" y1="564.78" x2="616.12" y2="694"/><line class="cls-1" x1="485.35" y1="613.03" x2="567.18" y2="693.9"/><line class="cls-1" x1="485.35" y1="659.86" x2="519.9" y2="694"/><rect class="cls-1" x="484.93" y="0.25" width="240.6" height="564.16"/><rect class="cls-2" x="231.38" y="0.25" width="263.17" height="564.53"/><rect class="cls-3" x="241.25" y="477.5" width="244.48" height="216.31"/><rect class="cls-4" x="241.25" y="5.88" width="244.48" height="475.54"/><ellipse class="cls-5" cx="363.49" cy="481.42" rx="122.24" ry="17.27"/><path class="cls-6" d="M432.2,465.68h0a29.2,29.2,0,0,1,33-6.39c6.22,2.83,11.51,6.35,11.71,10.2,0,0,.5,14-14,14.5,0,0-12.76-1-22.41-4.19a13.18,13.18,0,0,1-9-11.09h0A3,3,0,0,1,432.2,465.68Z"/><path class="cls-7" d="M278.61,472.83a25.29,25.29,0,0,1,10.44.79c9.61,2.65,7.5,16.89-2.46,16.59l-.44,0a26.33,26.33,0,0,1-8.45-.89C268.94,486.93,269.63,474.12,278.61,472.83Z"/><path class="cls-8" d="M438.17,477.73a16.29,16.29,0,0,1,5.84,3.19c4.86,4.06-.1,11.74-5.78,9l-.25-.13a17,17,0,0,1-4.66-2.73C428.88,483.36,432.64,476.12,438.17,477.73Z"/><path class="cls-9" d="M293.19,480.43a24,24,0,0,1,8.14-5.53c8.62-3.66,15.39,8.05,7.89,13.65l-.33.24a25,25,0,0,1-6.74,4.29C294.32,496.46,287.34,486.63,293.19,480.43Z"/><path class="cls-10" d="M261.32,458.5a36.72,36.72,0,0,1,14.74-3.28c14.36-.36,17.4,20.17,3.53,23.92l-.61.16a38.55,38.55,0,0,1-12,2.31C253.88,482,249.48,464,261.32,458.5Z"/><path class="cls-11" d="M241.25,364.61s110.75-19.45,244.48,0"/><path class="cls-11" d="M240.87,248s110.75-19.45,244.48,0"/><path class="cls-11" d="M241.25,131.34s110.75-19.45,244.48,0"/><path class="cls-12" d="M330.06,498,313.6,527.48a5.83,5.83,0,0,1-3.39,2.73h0A10.79,10.79,0,0,0,304.1,535l-8.84,14.62-11.89,15.21h11.89l6.62-14,7.17-13.33,7.17-5.17,10.45-16.78a26.8,26.8,0,0,0,3.24-7.61l2.47-9.8Z"/><path class="cls-13" d="M357.39,498.86,368,532a5.12,5.12,0,0,1,0,3.75h0c-.82,1.65-.85,4-.08,6.61l4.93,16.72,1.07,5.29H381l-3.93-6.63-5-14.92.36-7.38L367,516.17A45.75,45.75,0,0,0,363.7,508l-5.09-10Z"/><path class="cls-14" d="M414.61,497.11l17.15,28.41a5.84,5.84,0,0,1,.87,4.26h0a10.82,10.82,0,0,0,1.41,7.6L443,552l5.33,12.46H458l-10.91-17.8-8.56-12.49-1.3-8.74-10.11-17a26.67,26.67,0,0,0-5.28-6.36l-5.56-4.92Z"/><line class="cls-1" x1="0.25" y1="294.59" x2="240.85" y2="106.76"/><line class="cls-1" x1="0.25" y1="244.75" x2="240.75" y2="57"/><line class="cls-1" x1="0.25" y1="190.95" x2="240.87" y2="3.1"/><line class="cls-1" x1="0.25" y1="411.83" x2="240.85" y2="224"/><line class="cls-1" x1="0.25" y1="349.96" x2="240.85" y2="162.13"/><line class="cls-1" x1="7.09" y1="474.44" x2="240.85" y2="291.94"/><line class="cls-1" x1="63.88" y1="476.79" x2="240.85" y2="338.63"/><line class="cls-1" x1="131.19" y1="476.9" x2="240.85" y2="391.3"/><line class="cls-1" x1="187.54" y1="480.74" x2="240.85" y2="439.12"/><line class="cls-1" x1="176.08" y1="0.25" x2="0.25" y2="135.8"/><line class="cls-1" x1="115.64" y1="0.25" x2="0.25" y2="89.2"/><line class="cls-1" x1="51.17" y1="0.25" x2="0.25" y2="39.51"/><line class="cls-1" x1="7.23" y1="474.34" x2="229.4" y2="693.9"/><line class="cls-1" x1="64.03" y1="476.77" x2="229.44" y2="640.24"/><line class="cls-1" x1="131.17" y1="476.7" x2="228.73" y2="573.11"/><line class="cls-1" x1="187.57" y1="480.46" x2="240.85" y2="533.11"/><line class="cls-1" x1="0.67" y1="515.6" x2="179.08" y2="691.9"/><line class="cls-1" x1="0.67" y1="564.78" x2="131.43" y2="694"/><line class="cls-1" x1="0.67" y1="613.03" x2="82.5" y2="693.9"/><line class="cls-1" x1="0.67" y1="659.86" x2="35.22" y2="694"/><rect class="cls-1" x="0.25" y="0.25" width="240.6" height="564.16"/><rect class="cls-15" x="0.25" y="564.41" width="725.28" height="129.3"/></g></g></svg>