<svg xmlns="http://www.w3.org/2000/svg" viewBox="0 0 784.89 563.67"><defs><style>.cls-1{fill:none;stroke:#968972;}.cls-1,.cls-6,.cls-8{stroke-miterlimit:10;}.cls-1,.cls-6{stroke-width:0.5px;}.cls-2{fill:#6cc5e5;}.cls-3{fill:#7aabb2;}.cls-4{fill:#868569;}.cls-5{fill:#965200;}.cls-6{fill:#94978c;stroke:#565656;}.cls-7{fill:#5f786f;}.cls-8{fill:#e9760b;stroke:#303030;stroke-width:0.25px;}</style></defs><title>k_3</title><g id="Слой_2" data-name="Слой 2"><g id="k_3"><line class="cls-1" x1="522.72" y1="385.11" x2="784.64" y2="180.63"/><line class="cls-1" x1="522.72" y1="331.72" x2="784.64" y2="127.24"/><line class="cls-1" x1="522.72" y1="274.08" x2="784.64" y2="69.6"/><line class="cls-1" x1="519.47" y1="513.25" x2="784.64" y2="306.24"/><line class="cls-1" x1="524.87" y1="442.75" x2="784.64" y2="239.96"/><line class="cls-1" x1="548.44" y1="563.42" x2="784.64" y2="379.03"/><line class="cls-1" x1="612.51" y1="563.42" x2="784.64" y2="429.05"/><line class="cls-1" x1="684.78" y1="563.42" x2="784.64" y2="485.47"/><line class="cls-1" x1="750.41" y1="563.42" x2="784.64" y2="536.7"/><line class="cls-1" x1="729.55" y1="55.27" x2="524.2" y2="213.57"/><line class="cls-1" x1="665.18" y1="54.97" x2="524.99" y2="163.04"/><line class="cls-1" x1="596.11" y1="54.97" x2="525.4" y2="109.48"/><line class="cls-1" x1="544.85" y1="54.97" x2="526.51" y2="69.11"/><line class="cls-1" x1="1.91" y1="369.01" x2="265.74" y2="163.04"/><line class="cls-1" x1="1.91" y1="315.62" x2="265.74" y2="109.65"/><line class="cls-1" x1="1.91" y1="257.98" x2="265.74" y2="52.01"/><line class="cls-1" x1="1.91" y1="494.61" x2="257.29" y2="295.24"/><line class="cls-1" x1="1.91" y1="428.34" x2="260.2" y2="226.69"/><line class="cls-1" x1="7.01" y1="563.42" x2="255.45" y2="369.47"/><line class="cls-1" x1="71.08" y1="563.42" x2="257.29" y2="418.05"/><line class="cls-1" x1="143.34" y1="563.42" x2="257.29" y2="474.47"/><line class="cls-1" x1="208.98" y1="563.42" x2="257.29" y2="525.7"/><line class="cls-1" x1="186.78" y1="56.29" x2="1.91" y2="198.81"/><line class="cls-1" x1="121.82" y1="56.45" x2="1.91" y2="148.89"/><line class="cls-1" x1="54.68" y1="54.97" x2="1.91" y2="95.65"/><rect class="cls-2" x="258.61" y="175.73" width="269.84" height="79.12"/><rect class="cls-3" x="258.61" y="254.85" width="269.84" height="114.93"/><rect class="cls-4" x="258.61" y="369.79" width="269.84" height="98.28"/><rect class="cls-5" x="258.61" y="468.06" width="269.84" height="80.37"/><polygon class="cls-6" points="522.21 54.97 522.21 548.43 264.85 548.43 264.85 54.97 252.99 54.97 252.99 563.42 534.07 563.42 534.07 54.97 522.21 54.97"/><rect class="cls-6" x="237.79" y="33.31" width="311.49" height="21.65"/><polygon class="cls-6" points="284.48 11.66 272.82 33.31 452.71 33.31 440.22 11.66 284.48 11.66"/><rect class="cls-7" x="281.15" width="163.24" height="11.66"/><rect class="cls-1" x="1.91" y="54.97" width="251.08" height="508.46"/><rect class="cls-1" x="533.56" y="54.97" width="251.08" height="508.46"/><polygon class="cls-8" points="0.13 67.64 0.13 99.93 283.58 112.61 283.36 80.31 0.13 67.64"/></g></g></svg>