<?xml version="1.0" standalone="no"?>
<!DOCTYPE svg PUBLIC "-//W3C//DTD SVG 20010904//EN"
 "http://www.w3.org/TR/2001/REC-SVG-20010904/DTD/svg10.dtd">
<svg version="1.0" xmlns="http://www.w3.org/2000/svg"
 width="1280.000000pt" height="1280.000000pt" viewBox="0 0 1280.000000 1280.000000"
 preserveAspectRatio="xMidYMid meet">
<metadata>
Created by potrace 1.14, written by Peter Selinger 2001-2017
</metadata>
<g transform="translate(0.000000,1280.000000) scale(0.100000,-0.100000)"
fill="#000000" stroke="none">
<path d="M6385 12758 c-16 -21 -36 -45 -43 -53 -19 -22 -72 -93 -134 -180 -32
-44 -99 -137 -150 -207 -51 -70 -100 -137 -108 -148 -8 -12 -41 -58 -72 -101
-32 -44 -58 -82 -58 -85 0 -5 -14 -23 -42 -55 -10 -10 -18 -21 -18 -24 0 -7
-110 -165 -126 -182 -7 -7 -18 -26 -26 -43 -7 -16 -16 -30 -20 -30 -4 0 -15
-14 -24 -32 -9 -17 -25 -40 -35 -51 -10 -12 -19 -27 -19 -34 0 -8 -7 -16 -15
-19 -8 -4 -15 -10 -15 -15 0 -11 -120 -191 -133 -200 -5 -3 -7 -8 -5 -11 1 -3
-5 -16 -15 -29 -10 -13 -41 -60 -69 -104 -28 -44 -75 -116 -103 -160 -29 -44
-72 -111 -96 -150 -24 -38 -48 -73 -54 -77 -5 -4 -6 -8 -2 -8 4 0 -3 -15 -17
-33 -15 -19 -26 -39 -26 -45 0 -7 -4 -12 -10 -12 -5 0 -12 -11 -16 -24 -3 -14
-14 -32 -25 -42 -10 -9 -19 -21 -19 -26 0 -4 -23 -45 -50 -91 -28 -45 -55 -89
-60 -97 -5 -8 -27 -44 -48 -80 -22 -36 -40 -69 -40 -74 0 -5 -4 -12 -9 -15
-13 -9 -69 -103 -77 -129 -4 -12 -11 -22 -16 -22 -4 0 -15 -18 -24 -40 -9 -22
-21 -40 -28 -40 -6 0 -9 -3 -6 -6 4 -3 -20 -51 -53 -106 -32 -55 -59 -102 -59
-104 0 -2 -12 -23 -26 -46 -14 -23 -36 -60 -49 -82 -12 -23 -53 -95 -90 -161
-107 -188 -124 -218 -140 -250 -9 -16 -26 -48 -39 -70 -12 -22 -42 -76 -66
-120 -24 -44 -61 -111 -82 -148 -21 -38 -38 -73 -38 -78 0 -5 -4 -9 -10 -9 -5
0 -10 -5 -10 -11 0 -6 -37 -75 -82 -155 -152 -265 -400 -748 -390 -758 3 -3 0
-6 -6 -6 -7 0 -12 -4 -12 -9 0 -5 -25 -61 -55 -126 -30 -64 -55 -118 -55 -120
0 -2 -18 -43 -41 -92 -22 -48 -45 -99 -51 -113 -6 -14 -17 -38 -24 -55 -7 -16
-27 -64 -44 -105 -17 -41 -35 -83 -40 -92 -6 -10 -10 -25 -10 -33 0 -8 -5 -15
-12 -15 -6 0 -9 -3 -5 -6 3 -3 -6 -32 -20 -63 -13 -31 -26 -60 -27 -66 -3 -9
-8 -23 -23 -62 -3 -10 -7 -20 -7 -23 -1 -3 -13 -34 -28 -70 -14 -36 -36 -92
-49 -125 -12 -33 -25 -69 -30 -80 -33 -83 -198 -578 -244 -730 -14 -49 -30
-101 -35 -115 -5 -14 -18 -61 -30 -105 -12 -44 -24 -87 -27 -95 -3 -8 -7 -21
-9 -28 -1 -7 -19 -72 -38 -145 -20 -73 -39 -144 -42 -157 -9 -40 -12 -55 -14
-55 -1 0 -3 -9 -5 -20 -2 -11 -11 -50 -20 -85 -9 -36 -18 -76 -21 -90 -6 -29
-41 -180 -53 -230 -8 -30 -24 -112 -25 -132 -1 -3 -4 -10 -8 -13 -4 -4 -7
-195 -7 -424 1 -364 3 -430 20 -526 11 -60 22 -123 24 -140 7 -40 13 -70 15
-70 1 0 3 -15 6 -34 2 -19 11 -56 18 -82 8 -26 12 -50 9 -53 -4 -3 -1 -6 6 -6
7 0 10 -4 7 -9 -8 -13 114 -428 134 -456 4 -5 10 -22 13 -36 4 -14 14 -43 23
-65 10 -21 18 -44 20 -50 1 -5 13 -36 28 -67 14 -32 26 -59 26 -61 0 -3 16
-38 35 -80 20 -42 36 -79 36 -83 1 -5 4 -12 9 -18 5 -5 24 -39 43 -75 73 -138
100 -186 118 -212 11 -14 19 -31 19 -37 0 -6 5 -11 10 -11 6 0 10 -5 10 -10 0
-6 42 -72 93 -147 50 -75 97 -143 102 -152 6 -8 15 -20 20 -26 6 -5 36 -44 68
-85 31 -41 68 -88 82 -105 14 -16 43 -49 63 -73 195 -229 551 -560 717 -666
17 -11 35 -24 42 -30 22 -20 37 -31 83 -60 25 -16 57 -37 71 -47 118 -80 476
-272 549 -294 3 -1 30 -13 62 -27 47 -22 86 -38 108 -43 5 -2 55 -21 80 -32 8
-3 17 -7 20 -7 3 -1 58 -19 123 -40 65 -21 123 -39 130 -40 7 -1 18 -5 25 -9
6 -5 12 -6 12 -3 0 2 15 0 33 -6 32 -10 88 -24 137 -33 14 -3 43 -9 65 -15 22
-5 54 -12 70 -14 17 -3 41 -7 55 -10 78 -14 223 -34 335 -44 143 -13 890 -6
890 8 0 1 16 3 35 5 84 8 176 22 371 60 176 34 520 146 699 228 36 16 70 30
75 31 6 1 15 5 21 9 6 3 58 31 115 60 146 76 173 91 179 98 3 3 21 14 40 25
19 10 70 43 112 71 43 29 82 53 87 53 5 0 11 4 13 8 2 5 37 33 78 63 88 63
104 76 136 107 13 12 26 22 29 22 3 0 13 8 23 18 11 9 52 47 93 83 41 37 128
122 194 189 157 160 142 144 215 230 35 41 66 77 69 80 11 9 156 203 202 270
57 83 139 212 171 270 14 25 35 62 47 83 48 85 148 290 207 425 8 17 21 49 31
70 9 20 16 43 16 50 0 6 5 12 10 12 6 0 8 2 5 6 -3 3 9 43 27 89 18 46 36 99
40 117 4 18 11 38 15 43 4 6 11 24 15 40 5 17 9 35 11 40 41 144 66 235 70
255 2 14 7 36 10 50 3 14 8 34 10 45 2 11 6 31 9 45 6 26 9 41 20 105 3 22 8
47 11 55 2 8 6 38 9 65 3 28 8 57 10 65 2 8 7 47 11 85 3 39 8 84 10 100 23
216 23 605 0 718 -3 15 -8 38 -11 52 -3 14 -7 36 -10 50 -3 14 -8 37 -11 53
-3 15 -7 40 -10 57 -2 16 -7 37 -10 47 -6 20 -10 36 -24 113 -11 56 -15 72
-19 85 -5 14 -22 89 -27 115 -3 17 -7 37 -10 45 -3 8 -8 26 -10 40 -3 14 -7
32 -11 40 -3 8 -8 24 -9 35 -2 11 -13 56 -25 99 -12 44 -23 89 -25 100 -2 12
-29 109 -60 216 -30 107 -55 203 -55 212 0 10 -4 20 -10 23 -5 4 -9 14 -9 23
0 9 -13 58 -29 107 -40 128 -75 239 -77 245 0 3 -3 12 -6 20 -3 8 -29 85 -58
170 -28 85 -58 169 -66 187 -8 17 -14 40 -14 50 0 10 -4 23 -8 29 -4 5 -16 34
-26 64 -11 30 -22 60 -26 65 -4 6 -11 24 -15 40 -11 40 -12 44 -15 53 -1 4 -2
10 -1 15 0 4 -4 7 -9 7 -6 0 -10 9 -10 19 0 11 -5 23 -10 26 -6 4 -8 10 -5 15
3 5 1 11 -5 15 -6 4 -8 11 -5 16 4 5 1 9 -4 9 -6 0 -10 3 -10 8 1 4 0 10 -1
15 -1 4 -3 10 -4 15 -1 4 -10 24 -19 46 -9 21 -17 40 -17 42 0 1 -5 15 -12 31
-6 15 -12 30 -13 33 -1 3 -6 16 -12 30 -6 14 -25 59 -41 100 -17 41 -38 93
-48 115 -10 22 -18 42 -19 45 -1 3 -10 25 -22 50 -11 25 -33 73 -47 108 -49
117 -110 248 -234 502 -47 96 -86 178 -86 182 -1 3 -3 9 -6 11 -3 3 -36 68
-75 144 -38 76 -72 140 -75 143 -3 3 -17 28 -31 55 -46 90 -101 188 -229 412
-46 81 -90 157 -96 168 -11 21 -40 71 -73 128 -10 17 -65 113 -122 212 -57 99
-107 182 -111 183 -4 2 -8 7 -8 12 0 12 -73 134 -82 138 -5 2 -8 9 -8 16 0 6
-15 34 -32 62 -18 28 -44 72 -58 98 -14 26 -32 55 -40 65 -8 9 -16 23 -18 31
-2 8 -8 16 -13 18 -5 2 -9 7 -9 11 0 4 -37 68 -82 142 -44 74 -86 144 -92 156
-6 13 -14 23 -18 23 -5 0 -8 4 -8 9 0 8 -125 218 -147 247 -8 10 -28 43 -48
79 -6 11 -24 40 -40 65 -40 60 -51 79 -71 118 -10 17 -21 32 -26 32 -4 0 -8 5
-8 10 0 6 -20 41 -43 78 -24 37 -82 128 -130 202 -47 74 -91 140 -96 147 -6 7
-11 15 -11 19 0 9 -122 168 -132 172 -4 2 -8 10 -8 18 0 8 -7 17 -15 20 -8 4
-15 10 -15 14 0 7 -230 318 -275 373 -8 9 -15 20 -15 23 0 3 -6 11 -12 19 -26
27 -48 55 -48 63 0 4 -14 21 -30 39 -17 18 -30 37 -30 42 0 6 -4 11 -10 11 -5
0 -10 5 -10 10 0 6 -8 19 -17 29 -23 26 -34 39 -63 81 -14 19 -29 39 -35 46
-5 6 -32 40 -60 76 -69 91 -74 93 -110 46z"/>
</g>
</svg>
